<svg width="64" height="64" viewBox="0 0 64 64" fill="none" xmlns="http://www.w3.org/2000/svg">
<circle cx="32" cy="32" r="32" fill="#2C6654"/>
<path d="M42.6262 48.9999C42.343 49.0001 42.0663 48.9154 41.8317 48.7569C41.5971 48.5983 41.4154 48.373 41.3101 48.1102L40.1144 45.1168L37.1168 43.8545C36.8596 43.741 36.6418 43.554 36.4906 43.317C36.3393 43.0801 36.2615 42.8037 36.2668 42.5227C36.2721 42.2416 36.3603 41.9684 36.5203 41.7373C36.6804 41.5062 36.9051 41.3276 37.1664 41.2238L40.1244 40.1032L41.3101 37.1395C41.4192 36.8805 41.6022 36.6595 41.8363 36.504C42.0704 36.3486 42.3452 36.2657 42.6262 36.2657C42.9072 36.2657 43.182 36.3486 43.4161 36.504C43.6502 36.6595 43.8332 36.8805 43.9423 37.1395L45.1337 40.1145L48.1087 41.3059C48.3682 41.4145 48.5898 41.5974 48.7457 41.8315C48.9016 42.0657 48.9848 42.3407 48.9848 42.622C48.9848 42.9033 48.9016 43.1784 48.7457 43.4125C48.5898 43.6467 48.3682 43.8295 48.1087 43.9381L45.1337 45.1295L43.9423 48.1045C43.8378 48.3684 43.6565 48.5949 43.4219 48.7545C43.1872 48.9141 42.91 48.9996 42.6262 48.9999ZM29.1679 44.7499C28.5558 44.7572 27.9579 44.5662 27.4635 44.2053C26.9691 43.8445 26.6048 43.3332 26.4252 42.7481L24.1387 35.5982L16.9661 33.1984C16.3872 33.0049 15.8848 32.6324 15.5314 32.1347C15.1781 31.637 14.9921 31.0398 15.0003 30.4295C15.0085 29.8192 15.2104 29.2272 15.577 28.7392C15.9436 28.2512 16.4559 27.8923 17.0398 27.7144L24.1557 25.5413L26.5527 18.3814C26.7309 17.7933 27.0996 17.2812 27.6007 16.9255C28.1018 16.5698 28.7069 16.3907 29.3209 16.4165C29.933 16.4173 30.5284 16.6164 31.018 16.9839C31.5075 17.3514 31.8649 17.8675 32.0366 18.4551L34.2069 25.5597L41.3328 27.8405C41.9075 28.0333 42.4072 28.4018 42.7612 28.8939C43.1152 29.386 43.3057 29.977 43.3057 30.5832C43.3057 31.1894 43.1152 31.7803 42.7612 32.2725C42.4072 32.7646 41.9075 33.1331 41.3328 33.3259L34.1942 35.6095L31.9105 42.7481C31.7309 43.3332 31.3667 43.8445 30.8723 44.2053C30.3779 44.5662 29.7799 44.7572 29.1679 44.7499ZM29.3265 19.2824L26.6179 27.1322C26.5464 27.3464 26.4248 27.5405 26.2632 27.6982C26.1015 27.856 25.9045 27.9727 25.6885 28.0389L17.8671 30.4245L25.7169 33.1403C25.928 33.2106 26.1197 33.3298 26.2762 33.4881C26.4328 33.6463 26.5498 33.8392 26.6179 34.0512L29.1254 41.8854L31.7179 34.0512C31.7866 33.8361 31.9058 33.6405 32.0655 33.4808C32.2252 33.3212 32.4208 33.202 32.6359 33.1332L40.47 30.6271C40.4801 30.6243 40.4896 30.62 40.4984 30.6144L32.6359 28.0332C32.4177 27.9634 32.2196 27.8418 32.0588 27.6787C31.8979 27.5156 31.779 27.3159 31.7122 27.0968L29.3265 19.2824ZM44.0429 24.9165C43.727 24.9165 43.4203 24.811 43.1713 24.6167C42.9223 24.4224 42.7454 24.1505 42.6687 23.8441L42.1629 21.8183L40.1329 21.2729C39.8277 21.1909 39.5588 21.0092 39.3687 20.7569C39.1787 20.5045 39.0785 20.1958 39.084 19.8799C39.0895 19.564 39.2005 19.259 39.3993 19.0134C39.5981 18.7678 39.8732 18.5958 40.181 18.5245L42.1644 18.0641L42.6687 16.0723C42.7455 15.7659 42.9224 15.4941 43.1714 15.2998C43.4203 15.1055 43.7271 15 44.0429 15C44.3587 15 44.6654 15.1055 44.9144 15.2998C45.1633 15.4941 45.3403 15.7659 45.417 16.0723L45.9185 18.0811L47.9274 18.584C48.2337 18.6608 48.5056 18.8377 48.6998 19.0867C48.8941 19.3356 48.9996 19.6424 48.9996 19.9582C48.9996 20.274 48.8941 20.5807 48.6998 20.8297C48.5056 21.0787 48.2337 21.2556 47.9274 21.3324L45.9185 21.8353L45.417 23.8441C45.3403 24.1505 45.1634 24.4224 44.9144 24.6167C44.6654 24.811 44.3587 24.9165 44.0429 24.9165Z" fill="white"/>
</svg>
