<svg width="64" height="64" viewBox="0 0 64 64" fill="none" xmlns="http://www.w3.org/2000/svg">
<circle cx="32" cy="32" r="32" fill="#F94C66"/>
<g clip-path="url(#clip0_9_459)">
<path d="M41.9167 26.934V24.9166C41.9167 19.4399 37.4769 15 32 15C26.5232 15 22.0834 19.4399 22.0834 24.9166V26.934C19.5051 28.0593 17.8371 30.6035 17.8334 33.4166V41.9166C17.838 45.8267 21.0066 48.9953 24.9167 49H39.0833C42.9934 48.9953 46.1619 45.8267 46.1667 41.9166V33.4166C46.163 30.6035 44.4949 28.0593 41.9167 26.934ZM33.4167 39.0834C33.4167 39.8658 32.7824 40.5 32 40.5C31.2176 40.5 30.5834 39.8658 30.5834 39.0834V36.25C30.5834 35.4676 31.2176 34.8334 32 34.8334C32.7824 34.8334 33.4167 35.4676 33.4167 36.25V39.0834ZM39.0834 26.3334H24.9167V24.9167C24.9167 21.0047 28.088 17.8334 32 17.8334C35.9121 17.8334 39.0834 21.0047 39.0834 24.9167V26.3334Z" fill="white"/>
</g>
<defs>
<clipPath id="clip0_9_459">
<rect width="34" height="34" fill="white" transform="translate(15 15)"/>
</clipPath>
</defs>
</svg>
