<svg width="64" height="64" viewBox="0 0 64 64" fill="none" xmlns="http://www.w3.org/2000/svg">
<circle cx="32" cy="32" r="32" fill="#BD4291"/>
<path d="M44.75 32.6006V30.5833C44.75 27.2017 43.4067 23.9587 41.0156 21.5676C38.6245 19.1766 35.3815 17.8333 32 17.8333C28.6185 17.8333 25.3755 19.1766 22.9844 21.5676C20.5933 23.9587 19.25 27.2017 19.25 30.5833V32.6006C17.7641 33.2549 16.5481 34.3997 15.8055 35.8434C15.063 37.2872 14.8389 38.9422 15.1708 40.5314C15.5027 42.1207 16.3705 43.5476 17.6289 44.5735C18.8872 45.5993 20.4598 46.1617 22.0833 46.1666C22.8348 46.1666 23.5555 45.8681 24.0868 45.3367C24.6182 44.8054 24.9167 44.0847 24.9167 43.3333V34.8333C24.9167 34.0818 24.6182 33.3611 24.0868 32.8298C23.5555 32.2984 22.8348 31.9999 22.0833 31.9999V30.5833C22.0833 27.9532 23.1281 25.4308 24.9879 23.5711C26.8476 21.7114 29.3699 20.6666 32 20.6666C34.6301 20.6666 37.1524 21.7114 39.0121 23.5711C40.8719 25.4308 41.9167 27.9532 41.9167 30.5833V31.9999C41.1652 31.9999 40.4446 32.2984 39.9132 32.8298C39.3818 33.3611 39.0833 34.0818 39.0833 34.8333V43.3333H34.8333C34.4576 43.3333 34.0973 43.4825 33.8316 43.7482C33.5659 44.0139 33.4167 44.3742 33.4167 44.7499C33.4167 45.1256 33.5659 45.486 33.8316 45.7517C34.0973 46.0173 34.4576 46.1666 34.8333 46.1666H41.9167C43.5402 46.1617 45.1128 45.5993 46.3711 44.5735C47.6295 43.5476 48.4973 42.1207 48.8292 40.5314C49.1611 38.9422 48.937 37.2872 48.1945 35.8434C47.4519 34.3997 46.2359 33.2549 44.75 32.6006ZM22.0833 43.3333C20.9562 43.3333 19.8752 42.8855 19.0781 42.0885C18.2811 41.2914 17.8333 40.2104 17.8333 39.0833C17.8333 37.9561 18.2811 36.8751 19.0781 36.078C19.8752 35.281 20.9562 34.8333 22.0833 34.8333V43.3333ZM41.9167 43.3333V34.8333C43.0438 34.8333 44.1248 35.281 44.9219 36.078C45.7189 36.8751 46.1667 37.9561 46.1667 39.0833C46.1667 40.2104 45.7189 41.2914 44.9219 42.0885C44.1248 42.8855 43.0438 43.3333 41.9167 43.3333Z" fill="white"/>
</svg>
