<svg width="64" height="64" viewBox="0 0 64 64" fill="none" xmlns="http://www.w3.org/2000/svg">
<circle cx="32" cy="32" r="32" fill="#53BF9D"/>
<g clip-path="url(#clip0_9_393)">
<path d="M33.4167 46.1667H22.7917C21.0577 46.1689 19.3726 45.5915 18.0043 44.5263C16.636 43.4612 15.663 41.9693 15.2397 40.2877C14.8164 38.6062 14.9672 36.8314 15.6681 35.2453C16.3691 33.6593 17.5799 32.353 19.1083 31.5339C18.2694 29.9289 17.832 28.1444 17.8333 26.3334C17.8422 23.555 18.8714 20.8766 20.7253 18.8072C22.5792 16.7378 25.1287 15.4215 27.8894 15.1084C30.6501 14.7952 33.4296 15.5071 35.6999 17.1088C37.9702 18.7105 39.5731 21.0903 40.2039 23.7961C42.0563 24.2237 43.7709 25.1115 45.1892 26.3773C45.0404 26.3688 44.9002 26.3334 44.75 26.3334C43.0918 26.3356 41.4867 26.9185 40.2135 27.9808C38.9403 29.0431 38.0793 30.5178 37.78 32.1488L36.5801 32.7494C35.5988 32.2554 34.5153 31.9987 33.4167 32C31.5381 32 29.7364 32.7463 28.408 34.0747C27.0796 35.4031 26.3334 37.2047 26.3334 39.0834C26.3334 40.962 27.0796 42.7637 28.408 44.092C29.7364 45.4204 31.5381 46.1667 33.4167 46.1667ZM44.75 37.6667C45.5906 37.6667 46.4123 37.4174 47.1112 36.9504C47.8101 36.4834 48.3548 35.8197 48.6765 35.0431C48.9982 34.2665 49.0823 33.412 48.9184 32.5876C48.7544 31.7631 48.3496 31.0059 47.7552 30.4115C47.1609 29.8171 46.4036 29.4123 45.5792 29.2484C44.7547 29.0844 43.9002 29.1685 43.1236 29.4902C42.347 29.8119 41.6833 30.3566 41.2163 31.0555C40.7493 31.7544 40.5 32.5761 40.5 33.4167C40.5067 33.589 40.5242 33.7608 40.5524 33.9309L36.3591 36.029C35.7593 35.4487 35.0019 35.0578 34.1814 34.9051C33.3609 34.7524 32.5135 34.8447 31.7451 35.1704C30.9767 35.4961 30.3212 36.0409 29.8604 36.7368C29.3996 37.4326 29.1538 38.2488 29.1538 39.0834C29.1538 39.918 29.3996 40.7341 29.8604 41.43C30.3212 42.1258 30.9767 42.6706 31.7451 42.9963C32.5135 43.322 33.3609 43.4143 34.1814 43.2616C35.0019 43.1089 35.7593 42.718 36.3591 42.1377L40.5524 44.2358C40.5242 44.4059 40.5067 44.5777 40.5 44.75C40.4951 45.7357 40.8312 46.6928 41.4514 47.4589C42.0715 48.225 42.9376 48.7531 43.9027 48.9535C44.8678 49.1539 45.8725 49.0144 46.7465 48.5586C47.6204 48.1027 48.3098 47.3586 48.6978 46.4525C49.0857 45.5463 49.1483 44.5339 48.8749 43.5869C48.6015 42.6399 48.009 41.8165 47.1979 41.2565C46.3867 40.6965 45.4068 40.4343 44.4244 40.5144C43.4419 40.5944 42.5174 41.0118 41.8076 41.6957L37.6143 39.5976C37.6425 39.4275 37.66 39.2557 37.6667 39.0834C37.66 38.911 37.6425 38.7393 37.6143 38.5691L41.8076 36.471C42.5959 37.2366 43.6511 37.6654 44.75 37.6667Z" fill="white"/>
</g>
<defs>
<clipPath id="clip0_9_393">
<rect width="34" height="34" fill="white" transform="translate(15 15)"/>
</clipPath>
</defs>
</svg>
